<svg version="1.1" id="Layer_1" xmlns="http://www.w3.org/2000/svg" xmlns:xlink="http://www.w3.org/1999/xlink" x="0px" y="0px" width="200px" height="200px" viewBox="0 0 200 200" enable-background="new 0 0 200 200" xml:space="preserve">
	<clipPath id="polyclip">
		<path fill-rule="evenodd" clip-rule="evenodd" fill="#231F20" d="m99.9 198c-4.1-6.6-1.3-18.7-10.3-21.7-3.4-1.1-5.8 3-9.7 1.7-2-.7-2.8-5-4.4-6.2-10.3-7.9-10.9-1.5-21.2-1-3.8.2-4.4-3-8.7-2.5-3.6.4-6.6 3.7-9.7 5.1-19.9 8.8-18.6-5.3-13.8-20 4.3-13.3-1.1-9.8-7.6-19.1-7.7-10.9 2.8-17.1 7.3-25.6 3.1-5.9 4.5-15.9-1.1-21.2-4.3-4.1-15.1-.3-18.7-5.8-8.1-12.7 10.1-5.8 14.2-7.4 10.7-4.1 2.4-17.2 6.8-24.2 4.3-7.1 12-4.4 19-6.8 6.7-2.3 16.5-9.2 19.5-16.1 1.9-4.4-1.3-14.4 1.8-17.4 6.7-6.5 13.4 6.2 20.2 7.9 7.3 1.8 12.8-3.6 19.2-3.4 9.1.3 7.4 9.6 14.5 12.6 14.1 5.9 33.6-38.7 41.3-23.3 6.1 12.2-27.6 19.2-8.8 33.1 5 3.7 13.8.8 16.1 8 3 9.6-13.7 19.3 3.3 22.3 5.4.9 14.6-6.8 17.5 1.7 3.6 10.5-12.1 5.2-15.4 7.1-17.7 10 9.1 24 17 28.5 5.6 3.2 17.9 12.3 4.4 14.4-3.6.5-16.9-11.8-19.5-5.9-1.2 2.8 46.1 35 17.5 33.9-9.7-.3-16.9-11.9-28.7-11-7 .6-14.4 3.6-16.7 11.3-2.9 9.8 19 40.9 7.4 44.7-9.9 3.2-8.4-9.5-10.5-14-3.6-7.5-15.7-13.4-22.8-7.5-4.4 3.3-16.1 33.1-19.4 27.8z"/>
	</clipPath>
	<path id="poly" fill="#231F20" d="m99.9 198c-4.1-6.6-1.3-18.7-10.3-21.7-3.4-1.1-5.8 3-9.7 1.7-2-.7-2.8-5-4.4-6.2-10.3-7.9-10.9-1.5-21.2-1-3.8.2-4.4-3-8.7-2.5-3.6.4-6.6 3.7-9.7 5.1-19.9 8.8-18.6-5.3-13.8-20 4.3-13.3-1.1-9.8-7.6-19.1-7.7-10.9 2.8-17.1 7.3-25.6 3.1-5.9 4.5-15.9-1.1-21.2-4.3-4.1-15.1-.3-18.7-5.8-8.1-12.7 10.1-5.8 14.2-7.4 10.7-4.1 2.4-17.2 6.8-24.2 4.3-7.1 12-4.4 19-6.8 6.7-2.3 16.5-9.2 19.5-16.1 1.9-4.4-1.3-14.4 1.8-17.4 6.7-6.5 13.4 6.2 20.2 7.9 7.3 1.8 12.8-3.6 19.2-3.4 9.1.3 7.4 9.6 14.5 12.6 14.1 5.9 33.6-38.7 41.3-23.3 6.1 12.2-27.6 19.2-8.8 33.1 5 3.7 13.8.8 16.1 8 3 9.6-13.7 19.3 3.3 22.3 5.4.9 14.6-6.8 17.5 1.7 3.6 10.5-12.1 5.2-15.4 7.1-17.7 10 9.1 24 17 28.5 5.6 3.2 17.9 12.3 4.4 14.4-3.6.5-16.9-11.8-19.5-5.9-1.2 2.8 46.1 35 17.5 33.9-9.7-.3-16.9-11.9-28.7-11-7 .6-14.4 3.6-16.7 11.3-2.9 9.8 19 40.9 7.4 44.7-9.9 3.2-8.4-9.5-10.5-14-3.6-7.5-15.7-13.4-22.8-7.5-4.4 3.3-16.1 33.1-19.4 27.8z"/>
</svg>